<!--?xml version="1.0" standalone="no"?-->
              <svg id="sw-js-blob-svg" viewBox="0 0 100 100" xmlns="http://www.w3.org/2000/svg" version="1.1">
                    <defs> 
                        <linearGradient id="sw-gradient" x1="0" x2="1" y1="1" y2="0">
                            <stop id="stop1" stop-color="rgba(26.254, 25.745, 25.504, 1)" offset="0%"></stop>
                            <stop id="stop2" stop-color="rgba(26.254, 25.803, 25.059, 1)" offset="100%"></stop>
                        </linearGradient>
                    </defs>
                <path fill="url(#sw-gradient)" d="M19.7,-26C26.7,-22,34.4,-17.8,38.6,-11.1C42.8,-4.3,43.5,5,40.4,12.7C37.3,20.5,30.6,26.6,23.2,31.2C15.8,35.9,7.9,39,0,39.1C-8,39.1,-15.9,36,-22.7,31.1C-29.4,26.3,-34.9,19.7,-37.1,12.2C-39.4,4.7,-38.2,-3.7,-36.3,-12.5C-34.4,-21.3,-31.6,-30.5,-25.4,-34.8C-19.2,-39.1,-9.6,-38.4,-1.6,-36.2C6.3,-33.9,12.6,-30,19.7,-26Z" width="100%" height="100%" transform="translate(50 50)" stroke-width="0" style="transition: all 0.3s ease 0s;"></path>
              </svg>