<?xml version="1.0" standalone="no"?>
<!DOCTYPE svg PUBLIC "-//W3C//DTD SVG 20010904//EN"
 "http://www.w3.org/TR/2001/REC-SVG-20010904/DTD/svg10.dtd">
<svg version="1.0" xmlns="http://www.w3.org/2000/svg"
 width="500.000000pt" height="500.000000pt" viewBox="0 0 500.000000 500.000000"
 preserveAspectRatio="xMidYMid meet">
<metadata>
Created by potrace 1.14, written by Peter Selinger 2001-2017
</metadata>
<g transform="translate(0.000000,500.000000) scale(0.100000,-0.100000)"
fill="#000000" stroke="none">
<path d="M0 2500 l0 -2500 2500 0 2500 0 0 2500 0 2500 -2500 0 -2500 0 0
-2500z m2890 889 c0 -62 -2 -70 -17 -65 -212 61 -869 130 -931 97 -38 -20 -43
-69 -40 -362 4 -343 -8 -319 155 -319 104 0 113 2 113 19 0 10 16 50 35 89 77
152 241 252 415 252 123 -1 280 -54 318 -108 26 -37 35 -78 22 -102 -15 -28
-37 -25 -44 6 -11 42 -91 119 -154 147 -117 53 -240 43 -348 -29 -77 -51 -144
-149 -168 -246 l-6 -28 245 0 245 0 0 -70 c0 -38 -3 -70 -8 -70 -4 0 -23 4
-42 10 -30 8 -256 45 -404 65 l-48 7 4 -99 c6 -117 27 -186 83 -267 81 -119
219 -181 350 -159 91 16 168 57 243 129 l63 61 -3 -56 c-3 -54 -4 -57 -49 -87
-86 -57 -272 -88 -391 -65 -181 36 -320 170 -363 353 -8 35 -15 93 -15 129 l0
66 -82 6 c-99 7 -149 -7 -159 -43 -4 -14 -7 -197 -8 -407 l-1 -383 -65 0 -65
0 0 800 0 800 560 0 560 0 0 -71z m-1387 -1836 c-25 -3 -33 -9 -33 -24 0 -14
7 -19 28 -20 l27 -2 -27 -4 c-20 -3 -28 -11 -31 -31 -2 -15 -5 -1 -6 31 l-1
57 38 -2 c36 -1 36 -1 5 -5z m220 0 c-25 -3 -33 -9 -33 -24 0 -14 8 -19 33
-21 l32 -1 -32 -4 c-24 -3 -33 -9 -33 -23 0 -14 9 -20 33 -23 28 -3 26 -4 -10
-5 l-43 -2 0 55 0 55 43 -2 c36 -1 38 -2 10 -5z m224 0 c-29 -3 -37 -8 -35
-21 2 -9 17 -20 33 -23 l30 -7 -33 -1 c-47 -1 -41 -34 8 -42 l35 -6 -42 -2
-43 -1 0 55 0 55 43 -2 42 -1 -38 -4z m262 -7 c6 -7 11 -33 10 -57 l-2 -45
-36 4 c-20 3 -42 9 -48 14 -16 13 -17 70 -1 86 16 16 63 15 77 -2z m406 3 c4
-6 4 -13 0 -17 -4 -4 -10 -1 -12 6 -7 19 -41 14 -54 -9 -8 -16 -8 -28 0 -45
13 -28 38 -31 58 -6 13 16 14 16 11 -3 -4 -24 -51 -33 -74 -14 -17 14 -19 70
-2 87 15 15 64 16 73 1z m242 -15 c15 -24 15 -29 2 -53 -16 -29 -61 -40 -85
-20 -17 14 -19 70 -2 87 22 22 66 14 85 -14z m233 7 c25 -47 0 -91 -51 -91
-29 0 -29 1 -29 55 l0 55 35 0 c24 0 37 -6 45 -19z m203 12 c-25 -3 -33 -9
-33 -24 0 -14 8 -19 33 -21 l32 -1 -32 -4 c-24 -3 -33 -9 -33 -23 0 -14 9 -20
33 -23 28 -3 26 -4 -10 -5 l-43 -2 0 55 0 55 43 -2 c36 -1 38 -2 10 -5z m251
-8 c6 -18 -5 -20 -21 -4 -12 12 -43 6 -43 -9 0 -5 15 -13 33 -18 25 -8 32 -15
32 -34 0 -21 -6 -26 -31 -28 -19 -2 -36 3 -44 12 -8 10 -8 16 -2 16 6 0 14 -4
17 -10 3 -5 15 -10 26 -10 30 0 22 30 -11 41 -28 10 -40 36 -23 52 12 13 61 7
67 -8z"/>
<path d="M2140 1536 c-16 -20 -9 -56 13 -70 13 -8 20 -8 26 2 4 8 12 12 17 10
14 -5 17 41 4 58 -7 7 -20 14 -30 14 -10 0 -23 -7 -30 -14z"/>
<path d="M2779 1529 c-8 -16 -8 -28 0 -45 18 -41 71 -25 71 21 0 44 -50 61
-71 24z"/>
<path d="M3020 1510 c0 -27 5 -43 15 -46 25 -10 46 16 43 50 -2 25 -8 32 -30
34 -27 3 -28 1 -28 -38z"/>
</g>
</svg>
